<svg width="626" height="250" viewBox="0 0 626 250" fill="none" xmlns="http://www.w3.org/2000/svg">
<rect x="0.5" y="62.5" width="62.5" height="62.5" fill="#B68392"/>
<rect x="0.5" width="62.5" height="62.5" fill="#E5B1C0"/>
<rect x="63" y="62.5" width="62.5" height="62.5" fill="#F2BA63"/>
<rect x="63" width="62.5" height="62.5" fill="#FFCE72"/>
<rect x="125.5" y="62.5" width="62.5" height="62.5" fill="#685B89"/>
<rect x="125.5" width="62.5" height="62.5" fill="#B0A1C8"/>
<rect x="188" y="62.5" width="62.5" height="62.5" fill="#E1674A"/>
<rect x="188" width="62.5" height="62.5" fill="#FFA372"/>
<rect x="250.5" y="62.5" width="62.5" height="62.5" fill="#C85151"/>
<rect x="250.5" width="62.5" height="62.5" fill="#FF7272"/>
<rect x="313" y="62.5" width="62.5" height="62.5" fill="#65B26D"/>
<rect x="313" width="62.5" height="62.5" fill="#93E89B"/>
<rect x="375.5" y="62.5" width="62.5" height="62.5" fill="#27C1C1"/>
<rect x="375.5" width="62.5" height="62.5" fill="#72F7FF"/>
<rect x="438" y="62.5" width="62.5" height="62.5" fill="#AB4CBB"/>
<rect x="438" width="62.5" height="62.5" fill="#F4B1FF"/>
<rect x="500.5" y="62.5" width="62.5" height="62.5" fill="#BABABA"/>
<rect x="500.5" width="62.5" height="62.5" fill="#E7E7E7"/>
<rect x="563" y="187.5" width="62.5" height="62.5" fill="#222222"/>
<rect x="563" y="125" width="62.5" height="62.5" fill="#3F3F3F"/>
<rect x="563" y="62.5" width="62.5" height="62.5" fill="#5B5B5B"/>
</svg>
